<?xml version="1.0" encoding="UTF-8" standalone="no"?>
<!-- Created with Inkscape (http://www.inkscape.org/) -->

<svg
   xmlns:dc="http://purl.org/dc/elements/1.1/"
   xmlns:cc="http://creativecommons.org/ns#"
   xmlns:rdf="http://www.w3.org/1999/02/22-rdf-syntax-ns#"
   xmlns:svg="http://www.w3.org/2000/svg"
   xmlns="http://www.w3.org/2000/svg"
   xmlns:xlink="http://www.w3.org/1999/xlink"
   xmlns:sodipodi="http://sodipodi.sourceforge.net/DTD/sodipodi-0.dtd"
   xmlns:inkscape="http://www.inkscape.org/namespaces/inkscape"
   width="70.866142"
   height="106.29921"
   id="svg2"
   sodipodi:version="0.32"
   inkscape:version="0.92.2 2405546, 2018-03-11"
   version="1.0"
   sodipodi:docname="gitRabbit.svg"
   inkscape:output_extension="org.inkscape.output.svg.inkscape">
  <defs
     id="defs4">
    <pattern
       patternUnits="userSpaceOnUse"
       width="667.79314"
       height="617.66073"
       patternTransform="translate(-252.45535,251.68011)"
       id="pattern5079">
      <path
         sodipodi:nodetypes="csssss"
         id="path2168"
         d="M 40,466.41899 C 104.2474,348.83895 171.86336,33.834378 272.28451,40.091898 C 359.60412,45.533028 120.31176,415.0723 181.63691,514.57552 C 248.5208,623.09811 376.02437,42.235768 446.49791,82.582978 C 493.67487,109.59254 298.22204,599.59962 436.58332,576.89576 C 551.48283,558.04178 549.66768,101.97127 627.79314,129.32316"
         style="fill:none;fill-opacity:0.75;fill-rule:evenodd;stroke:#ff0000;stroke-width:80;stroke-linecap:butt;stroke-linejoin:miter;stroke-miterlimit:4;stroke-dasharray:none;stroke-opacity:1" />
    </pattern>
    <pattern
       inkscape:collect="always"
       xlink:href="#pattern5079"
       id="pattern5084"
       patternTransform="matrix(1.352081,0,0,1.4884342,-647.62229,-217.13804)" />
    <pattern
       inkscape:collect="always"
       xlink:href="#pattern5084"
       id="pattern5089"
       patternTransform="matrix(1.352081,0,0,1.4884342,2.4453125e-5,-8.9941406e-6)" />
    <pattern
       patternUnits="userSpaceOnUse"
       width="902.9104"
       height="919.34729"
       patternTransform="translate(-647.62231,-217.13803)"
       id="pattern5086">
      <rect
         id="rect5082"
         y="0"
         x="0"
         height="919.34729"
         width="902.9104"
         style="fill:url(#pattern5089);stroke:none" />
    </pattern>
  </defs>
  <sodipodi:namedview
     id="base"
     pagecolor="#ffffff"
     bordercolor="#666666"
     borderopacity="1.0"
     inkscape:pageopacity="0.0"
     inkscape:pageshadow="2"
     inkscape:zoom="4.4591112"
     inkscape:cx="12.480461"
     inkscape:cy="75.640553"
     inkscape:document-units="px"
     inkscape:current-layer="layer1"
     width="2cm"
     height="3cm"
     units="cm"
     inkscape:window-width="958"
     inkscape:window-height="1046"
     inkscape:window-x="0"
     inkscape:window-y="32"
     showgrid="false"
     inkscape:window-maximized="0" />
  <metadata
     id="metadata7">
    <rdf:RDF>
      <cc:Work
         rdf:about="">
        <dc:format>image/svg+xml</dc:format>
        <dc:type
           rdf:resource="http://purl.org/dc/dcmitype/StillImage" />
        <dc:title></dc:title>
      </cc:Work>
    </rdf:RDF>
  </metadata>
  <g
     inkscape:label="Calque 1"
     inkscape:groupmode="layer"
     id="layer1"
     transform="translate(-118.7629,-37.345202)">
    <path
       style="fill:none;fill-rule:evenodd;stroke:#000000;stroke-width:1;stroke-linecap:butt;stroke-linejoin:miter;stroke-miterlimit:4;stroke-dasharray:none;stroke-opacity:1"
       d="M 132.50345,100.466 C 128.55144,91.806924 116.04889,43.770379 135.82293,40.474707 C 152.38614,37.714173 153.23136,69.390989 155.19538,83.276556 C 155.44154,67.151934 159.6438,37.46963 174.56782,40.840225 C 188.44341,43.974029 183.31875,79.381075 178.75068,99.366582"
       id="path2160"
       sodipodi:nodetypes="cscsc" />
    <path
       style="fill:none;fill-rule:evenodd;stroke:#000000;stroke-width:1;stroke-linecap:butt;stroke-linejoin:miter;stroke-miterlimit:4;stroke-dasharray:none;stroke-opacity:1"
       d="M 129.68415,120.41358 C 144.41296,132.35632 170.14405,135.29608 183.80814,116.92262"
       id="path2173" />
    <path
       style="fill:none;fill-rule:evenodd;stroke:#000000;stroke-width:1.08323646;stroke-linecap:butt;stroke-linejoin:miter;stroke-miterlimit:4;stroke-dasharray:none;stroke-opacity:1"
       d="m 147.95449,129.03065 c -0.13679,1.37188 -1.82364,9.7583 0.51816,10.44526 2.29632,0.67363 7.02713,0.17563 8.30762,0.29726 1.8852,0.17909 0.45966,-6.87863 0.90947,-9.25689 0.68874,1.81965 -0.0807,9.25261 0.77596,9.72748 1.0986,0.60901 7.77725,0.17489 8.63107,-1.18203 1.8554,-2.9487 -0.68837,-9.10486 -0.68837,-10.27279"
       id="path3154"
       sodipodi:nodetypes="csscssc"
       inkscape:connector-curvature="0" />
    <ellipse
       id="path4129"
       style="color:#000000;display:inline;overflow:visible;visibility:visible;opacity:1;fill:none;fill-opacity:1;fill-rule:evenodd;stroke:#000000;stroke-width:1.61454785;stroke-linecap:butt;stroke-linejoin:miter;stroke-miterlimit:4;stroke-dasharray:none;stroke-dashoffset:0;stroke-opacity:1;marker:none;marker-start:none;marker-mid:none;marker-end:none;enable-background:accumulate"
       cx="147.71352"
       cy="102.00448"
       rx="3.7874098"
       ry="4.89744" />
    <ellipse
       style="opacity:1;color:#000000;fill:none;fill-opacity:1;fill-rule:evenodd;stroke:#000000;stroke-width:6.07404627;stroke-linecap:butt;stroke-linejoin:miter;marker:none;marker-start:none;marker-mid:none;marker-end:none;stroke-miterlimit:4;stroke-dasharray:none;stroke-dashoffset:0;stroke-opacity:1;visibility:visible;display:inline;overflow:visible;enable-background:accumulate"
       id="path4131"
       transform="matrix(0.1646349,0,0,0.1646349,147.36237,33.754237)"
       d="M 126.91983,429.3671 A 16.202532,16.202532 0 0 1 110.7173,445.56963 16.202532,16.202532 0 0 1 94.514769,429.3671 16.202532,16.202532 0 0 1 110.7173,413.16456 16.202532,16.202532 0 0 1 126.91983,429.3671 Z"
       sodipodi:type="arc"
       sodipodi:ry="16.202532"
       sodipodi:rx="16.202532"
       sodipodi:cy="429.3671"
       sodipodi:cx="110.7173" />
    <path
       inkscape:connector-curvature="0"
       style="fill:#de4c36;stroke-width:0.0848931"
       d="m 183.69122,90.522841 -9.48867,-9.48817 c -0.54611,-0.54647 -1.43242,-0.54647 -1.9792,0 l -1.97038,1.97035 2.49952,2.49952 c 0.58082,-0.19628 1.24691,-0.0646 1.70993,0.39839 0.46521,0.466 0.59593,1.13775 0.39491,1.72045 l 2.40883,2.40895 c 0.58281,-0.20079 1.25524,-0.0709 1.72071,0.39535 0.65054,0.65027 0.65054,1.7042 0,2.35492 -0.65072,0.6508 -1.70464,0.6508 -2.35571,0 -0.48932,-0.48985 -0.61019,-1.20847 -0.36248,-1.81129 l -2.24643,-2.24644 -2.7e-4,5.9117 a 1.6825813,1.6825813 0 0 1 0.44044,0.31497 c 0.65051,0.65028 0.65051,1.7043 0,2.355512 -0.65072,0.65045 -1.70517,0.65045 -2.35495,0 -0.65054,-0.651212 -0.65054,-1.705142 0,-2.355452 a 1.668489,1.668489 0 0 1 0.54509,-0.36341 v -5.96681 a 1.6450585,1.6450585 0 0 1 -0.54509,-0.36341 c -0.49288,-0.49221 -0.61139,-1.21542 -0.35883,-1.82061 l -2.46396,-2.4642 -6.5062,6.50576 c -0.5467,0.547 -0.5467,1.43336 0,1.97988 l 9.48884,9.488339 c 0.54629,0.54656 1.43242,0.54656 1.97938,0 l 9.44443,-9.444279 c 0.54655,-0.5467 0.54655,-1.43358 0,-1.98002"
       id="path92" />
  </g>
</svg>
